<mxfile host="app.diagrams.net" modified="2024-03-05T14:00:37.423Z" agent="Mozilla/5.0 (Windows NT 10.0; Win64; x64) AppleWebKit/537.36 (KHTML, like Gecko) Chrome/122.0.0.0 Safari/537.36 Edg/122.0.0.0" version="24.0.1" etag="nHKOkY9u1RfkM4WA16kB" type="github">
  <diagram name="PÃ¡gina-1" id="47-q0oE7IzGvson8ut-v">
    <mxGraphModel>
      <root>
        <mxCell id="0" />
        <mxCell id="1" parent="0" />
      </root>
    </mxGraphModel>
  </diagram>
</mxfile>
